<svg xmlns="http://www.w3.org/2000/svg" version="1.1" xmlns:xlink="http://www.w3.org/1999/xlink" xmlns:svgjs="http://svgjs.dev/svgjs" width="128" height="128" viewBox="0 0 128 128"><g transform="matrix(0.44782608695652176,0,0,0.44782608695652176,35.339226276730436,12.5)"><svg viewBox="0 0 125 225" data-background-color="#ffffff" preserveAspectRatio="xMidYMid meet" height="230" width="128" xmlns="http://www.w3.org/2000/svg" xmlns:xlink="http://www.w3.org/1999/xlink"><g id="tight-bounds" transform="matrix(1,0,0,1,-0.00020899999999812735,0)"><svg viewBox="0 0 125 225" height="225" width="125"><g><svg></svg></g><g><svg viewBox="0 0 125 225" height="225" width="125"><g><path transform="translate(-29.29403,21.95688) scale(1.81951,1.81951)" d="M20.6 59.9l0.8 1-0.4-1.3c-0.1-0.6-0.8 0.1-0.4 0.3M21.5 59.3c0.3 0.5 0.6 1 0.6 1.5 0 0.7 0.6 1 1.1 1.2-0.7-0.8-1.1-3-1.7-2.7M59.9 16.9c1.7 0 3.3-0.2 5.1 0.2 4.4 1.1 8.1 3.3 10.6 6.4l7 11.2c0.3 2.8 0.9 5.9 0.8 9.3 0.7 0 0.6-1 1.4-1.2-0.8 2-1.2 4.5-1.4 7.4-0.5-1.6 0-4 0.1-5.3-0.7 1.1-1.1 0.3-1.1-0.2 0.1-0.8-0.3-0.7-0.6-1-1.1-1-1.8-2.1-2.6-3.8 0.5-1.3 0.6-3.2-1-4.2-0.5-0.3-1.1-0.8-1.4-1.6-0.4-1.1-1.1-2.4-0.9-4.1 0.1-0.5-1.5 1.1-2.4 0.4-3.9-2.7-7.8-5.8-12.5-8.4-2.5 0-4.3-0.9-5.2-2-0.8-1-0.2-2.3 1-2.4 0.7 0 1.5-0.2 2.1 0.2 0.1-0.4 0.5-0.9 1-0.9M50 14.6l0.2 0.1c1 0.2 1.5 1.6 2.6 1.1 0 0.7 0.1 1.4-0.1 1.9-0.3 0.8-1.2 0.8-1.9 0.8-6.7-0.4-10.6 2.4-14.7 4.8-1.1 0.7-2.3 1.2-3.2 2.1-4.3 4-9 7.7-10.1 15.1l-0.9 8.2c-0.1 0.9-1.1 1.8-0.9 2.9l0.7 4.9c-0.7-0.7-1.1 0.2-0.9 0.6 0.1 0.3 0.5 1.3 1.1 0.4 0.8 1.5 1.6 4.4 2.7 5.7 3.4 4 7.8 7.6 11.4 11.2 0.9-0.2 1.6-0.2 1.8-0.8 0.3 0.6-0.3 1.2-0.8 1.3 1.6 1 3.4 1.9 5.8 2.1 3.1 0.2 6 0.7 8.7 1.4 1.4-0.4 2.8-0.6 4.3-0.7 0.5 0 0.8-0.8 1.4-1l0.1-1c0.6 0.9 0.5-0.3 0.1-0.9 0.7 0.6 0.9 1.1 1.2 1.5 0-0.3 0.8-1.4 0.8-0.1l0.2-1.3c0.3-0.2 0.4 1.1 0.7 0.2 0.3-0.9 0.9-0.2 1.5-0.5-0.2 0.4-0.1 1.2 0.6 0.7l0.8-0.7c0.5 1.2 1.3 0.7 1.7 0.5 4.4-2.8 8.8-6.1 13-9.4l-0.1 1.3 0.5-1.6c0.5 0.5 0.9 0.1 1.1-0.2 0.6-1 1.4-2 2.7-2.9-1.6 4.3-3.5 7.7-5.9 10.5l-1 1.2c0 0.7-0.2 1.6-1 1.7-0.4 0.1-1.2-0.2-1.8 0.4-0.3 0.4 0.7 1.2-0.1 0.6-0.7-0.5-1.4 0-2.2 0.2-0.6 0.2 0.4 0.8 0.6 1.2 0.2 0.4 0.4 0.8 0.3 1.3l-1.1-1.2c-1.3 0.7-2.1 2-3.2 3-0.5 0.4-0.3 1.1-0.3 1.7-0.7 0-1.5-0.2-1.9 0.2-0.3 0.4-0.2 1-0.2 1.6-1-0.1-1.1-1.6-2-1.3-0.9 0.2-1.9 0.3-2.7 0.8 0.6 1.2-1 0.5-0.8 0.7-1.5-0.9-2.8-1.6-4.4-1-3.4-1.1-7.6-0.6-10.7-0.2 0-0.5 0.1-1-0.1-1.1-0.2 0.5-0.8 0.3-0.7 0.3-1.9-1.3-3.8-2.1-5.8-3.2-1.8 0.2-3.5-0.7-4-1.2-1.4-1.3-3-0.6-4.3-0.9-2.8-0.7-3.8-3.6-4.1-5.6-0.2-1-1-1.4-1.3-1.3-1.3-4.2-3.3-8-4.9-11.9-0.4-1-0.3-2-0.3-3.1 0.5 0.2 1 0.1 0.9-0.6-0.5-3.3-1.7-5.8-3-8.2 0.7-3.4 0.8-7.4 2.4-10.4 1.4-2.7 4-4.1 5.8-6.4 0.6-0.8 0.6-1.9 1.2-2.6 2-2 4-4.1 6.2-5.9 1-0.8 2.2 0 3.7-0.3 0.5-1.8 2.5-3.4 4.4-2.9 0.8 0.2 2.4-1.9 2.9-2.1 0.8-0.3 0.4 0.8 0.4 1.5 1.9-1.5 4.5-2.3 6.9-3.2" fill="#000000" fill-rule="nonzero" stroke="none" stroke-width="1" stroke-linecap="butt" stroke-linejoin="miter" stroke-miterlimit="10" stroke-dasharray="" stroke-dashoffset="0" font-family="none" font-weight="none" font-size="none" text-anchor="none" style="mix-blend-mode: normal" data-fill-palette-color="tertiary"></path></g><g transform="matrix(1,0,0,1,48.17785,101.56806835577605)"><svg viewBox="0 0 28.644300000000005 21.863863288447913" height="21.863863288447913" width="28.644300000000005"><g><svg viewBox="0 0 28.644300000000005 21.863863288447913" height="21.863863288447913" width="28.644300000000005"><g><svg viewBox="0 0 28.644300000000005 21.863863288447913" height="21.863863288447913" width="28.644300000000005"><g id="textblocktransform"><svg viewBox="0 0 28.644300000000005 21.863863288447913" height="21.863863288447913" width="28.644300000000005" id="textblock"><g><svg viewBox="0 0 28.644300000000005 21.863863288447913" height="21.863863288447913" width="28.644300000000005"><g><svg viewBox="0 0 28.644300000000005 21.863863288447913" height="21.863863288447913" width="28.644300000000005"><g><svg xmlns="http://www.w3.org/2000/svg" xmlns:xlink="http://www.w3.org/1999/xlink" version="1.1" x="0" y="0" viewBox="1.32 12.844 97.359 74.313" enable-background="new 0 0 100 100" xml:space="preserve" height="21.863863288447913" width="28.644300000000005" class="icon-icon-0" data-fill-palette-color="accent" id="icon-0"><path fill="#000000" d="M49.951 87.075c0.212-0.248 0.117-0.575-0.033-0.841C50.075 86.505 50.178 86.833 49.951 87.075z" data-fill-palette-color="accent"></path><path fill="#000000" d="M64.521 86.734c-0.15 0.17-0.451 0.289-0.98 0.33-0.09 0.01-0.221 0.01-0.38 0.021-0.41 0.011-1.04 0.021-1.841 0.04-0.439 0-0.92 0-1.449 0.011-0.811 0-1.92 0-3.229 0.01-1.933 0.011-4.07 0.011-6.19 0.011-3.66 0-7.23-0.011-9.46-0.021-0.62 0-1.13-0.011-1.52-0.011-1.29-0.012-2.27-0.029-2.77-0.051-0.07 0-0.15 0-0.23-0.01-0.09-0.011-0.17-0.021-0.24-0.031-1.73-0.238-0.36-1.618-0.36-1.618s2.1-1.642 3.14-3.279c0 0 0.31-0.011 0.6-2.54 0.4-3.58 0.75-6.359 0.75-6.359h19.291c0 0 0.341 2.779 0.75 6.359 0.279 2.529 0.591 2.54 0.591 2.54 0.979 1.54 2.88 3.08 3.118 3.271 0.012 0 0.021 0.011 0.021 0.011s0.07 0.069 0.16 0.188C64.51 85.873 64.819 86.384 64.521 86.734z" data-fill-palette-color="accent"></path><path fill="#000000" d="M49.901 85.83c0.064 0.078 0.135 0.179 0.197 0.289C50.036 86.011 49.965 85.91 49.901 85.83z" data-fill-palette-color="accent"></path><path fill="#000000" d="M50.129 71.937c-3.169 0.013-44.547 0.144-46.563 0C1.471 71.79 1.32 69.691 1.32 69.691V14.744c0-1.797 2.245-1.9 2.245-1.9h46.116 0.639 46.113c0 0 2.246 0.103 2.246 1.9v54.948c0 0-0.15 2.099-2.246 2.245C94.463 72.078 54.797 71.951 50.129 71.937M94.898 16.541H5.213v50.756h89.686V16.541L94.898 16.541z" data-fill-palette-color="accent"></path></svg></g></svg></g></svg></g></svg></g></svg></g></svg></g></svg></g></svg></g><defs></defs></svg><rect width="125" height="225" fill="none" stroke="none" visibility="hidden"></rect></g></svg></g></svg>