<svg xmlns="http://www.w3.org/2000/svg" version="1.1" xmlns:xlink="http://www.w3.org/1999/xlink" xmlns:svgjs="http://svgjs.dev/svgjs" width="1000" height="1125" viewBox="0 0 1000 1125"><g transform="matrix(1,0,0,1,1.7053025658242404e-13,0)"><svg viewBox="0 0 320 360" data-background-color="#ffffff" preserveAspectRatio="xMidYMid meet" height="1125" width="1000" xmlns="http://www.w3.org/2000/svg" xmlns:xlink="http://www.w3.org/1999/xlink"><g id="tight-bounds" transform="matrix(1,0,0,1,0,0)"><svg viewBox="0 0 320 360" height="360" width="320"><g><svg></svg></g><g><svg viewBox="0 0 320 360" height="360" width="320"><g><path xmlns="http://www.w3.org/2000/svg" d="M20.961 227.22l3.726 4.658-1.863-6.056c-0.466-2.795-3.726 0.466-1.863 1.398M25.153 224.425c1.397 2.329 2.795 4.658 2.795 6.987 0 3.261 2.795 4.658 5.123 5.589-3.261-3.726-5.124-13.974-7.918-12.576M204.017 26.929c7.918 0 15.371-0.932 23.756 0.931 20.495 5.124 37.729 15.371 49.374 29.811l32.606 52.169c1.397 13.042 4.192 27.482 3.726 43.319 3.261 0 2.795-4.658 6.521-5.59-3.726 9.316-5.59 20.961-6.521 34.469-2.329-7.453 0-18.632 0.466-24.687-3.261 5.124-5.124 1.397-5.124-0.932 0.466-3.726-1.397-3.261-2.795-4.658-5.124-4.658-8.384-9.782-12.11-17.7 2.329-6.055 2.795-14.905-4.658-19.563-2.329-1.397-5.124-3.726-6.521-7.453-1.863-5.124-5.124-11.179-4.193-19.097 0.466-2.329-6.987 5.124-11.179 1.863-18.166-12.576-36.332-27.016-58.224-39.127-11.645 0-20.029-4.192-24.221-9.316-3.726-4.658-0.932-10.713 4.658-11.179 3.261 0 6.987-0.932 9.782 0.932 0.466-1.863 2.329-4.192 4.657-4.192M157.904 16.215l0.932 0.466c4.658 0.932 6.987 7.453 12.11 5.124 0 3.261 0.466 6.521-0.466 8.85-1.397 3.726-5.59 3.726-8.85 3.726-31.208-1.863-49.374 11.179-68.471 22.358-5.124 3.261-10.713 5.59-14.906 9.782-20.029 18.632-41.921 35.866-47.045 70.335l-4.192 38.195c-0.466 4.192-5.124 8.384-4.192 13.508l3.26 22.824c-3.261-3.261-5.124 0.932-4.192 2.795 0.466 1.397 2.329 6.055 5.124 1.863 3.726 6.987 7.453 20.495 12.576 26.55 15.837 18.632 36.332 35.4 53.101 52.169 4.192-0.932 7.453-0.932 8.384-3.727 1.397 2.795-1.397 5.59-3.726 6.056 7.453 4.658 15.837 8.85 27.016 9.781 14.44 0.932 27.948 3.261 40.524 6.522 6.521-1.863 13.042-2.795 20.029-3.261 2.329 0 3.726-3.726 6.521-4.658l0.466-4.658c2.795 4.192 2.329-1.397 0.466-4.192 3.261 2.795 4.192 5.124 5.589 6.987 0-1.397 3.726-6.521 3.727-0.466l0.931-6.055c1.397-0.932 1.863 5.124 3.261 0.931 1.397-4.192 4.192-0.932 6.987-2.329-0.932 1.863-0.466 5.59 2.794 3.261l3.727-3.261c2.329 5.59 6.055 3.261 7.918 2.329 20.495-13.042 40.99-28.413 60.553-43.784l-0.466 6.055 2.329-7.453c2.329 2.329 4.192 0.466 5.124-0.931 2.795-4.658 6.521-9.316 12.577-13.508-7.453 20.029-16.303 35.866-27.482 48.908l-4.658 5.59c0 3.261-0.932 7.453-4.658 7.918-1.863 0.466-5.59-0.932-8.384 1.863-1.397 1.863 3.261 5.59-0.466 2.795-3.261-2.329-6.521 0-10.248 0.932-2.795 0.932 1.863 3.726 2.795 5.589 0.932 1.863 1.863 3.726 1.398 6.056l-5.124-5.59c-6.055 3.261-9.782 9.316-14.906 13.974-2.329 1.863-1.397 5.124-1.397 7.918-3.261 0-6.987-0.932-8.85 0.932-1.397 1.863-0.932 4.658-0.932 7.453-4.658-0.466-5.124-7.453-9.315-6.056-4.192 0.932-8.85 1.397-12.577 3.727 2.795 5.59-4.658 2.329-3.726 3.26-6.987-4.192-13.042-7.453-20.495-4.658-15.837-5.124-35.4-2.795-49.84-0.931 0-2.329 0.466-4.658-0.466-5.124-0.932 2.329-3.726 1.397-3.26 1.397-8.85-6.055-17.7-9.782-27.016-14.905-8.384 0.932-16.303-3.261-18.632-5.59-6.521-6.055-13.974-2.795-20.029-4.192-13.042-3.261-17.7-16.769-19.098-26.084-0.932-4.658-4.658-6.521-6.055-6.056-6.055-19.563-15.371-37.263-22.824-55.429-1.863-4.658-1.397-9.316-1.397-14.44 2.329 0.932 4.658 0.466 4.192-2.794-2.329-15.371-7.918-27.016-13.974-38.195 3.261-15.837 3.726-34.469 11.179-48.443 6.521-12.576 18.632-19.098 27.016-29.811 2.795-3.726 2.795-8.85 5.59-12.11 9.316-9.316 18.632-19.098 28.879-27.482 4.658-3.726 10.247 0 17.234-1.397 2.329-8.384 11.645-15.837 20.495-13.508 3.726 0.932 11.179-8.85 13.508-9.782 3.726-1.397 1.863 3.726 1.863 6.987 8.85-6.987 20.961-10.713 32.14-14.906" fill="#755bb4" fill-rule="nonzero" stroke="none" stroke-width="1" stroke-linecap="butt" stroke-linejoin="miter" stroke-miterlimit="10" stroke-dasharray="" stroke-dashoffset="0" font-family="none" font-weight="none" font-size="none" text-anchor="none" style="mix-blend-mode: normal" data-fill-palette-color="tertiary"></path></g><g transform="matrix(1,0,0,1,83.69973999999999,126.89230047088574)"><svg viewBox="0 0 152.60052000000002 106.21539905822853" height="106.21539905822853" width="152.60052000000002"><g><svg viewBox="0 0 152.60052000000002 106.21539905822853" height="106.21539905822853" width="152.60052000000002"><g><svg viewBox="0 0 152.60052000000002 106.21539905822853" height="106.21539905822853" width="152.60052000000002"><g><path d="M0 106.215v-106.215h152.601v106.215z" fill="#755bb4" stroke="transparent" stroke-width="0" rx="0%" data-fill-palette-color="tertiary"></path><path d="M3.283 102.932v-99.649h146.034v99.649z" fill="#ffffff" stroke="transparent" stroke-width="0" rx="0%" data-fill-palette-color="quaternary"></path><path d="M9.85 96.366v-86.516h132.901v86.516z" fill="#755bb4" stroke="transparent" stroke-width="0" data-fill-palette-color="tertiary"></path></g><g transform="matrix(1,0,0,1,19.69973999999999,19.69974)" id="textblocktransform"><svg viewBox="0 0 113.20104000000003 66.81591905822853" height="66.81591905822853" width="113.20104000000003" id="textblock"><g><svg viewBox="0 0 113.20104000000003 53.87682984838498" height="53.87682984838498" width="113.20104000000003"><g transform="matrix(1,0,0,1,0,0)"><svg width="113.20104000000003" viewBox="1.75 -35.5 75.8499984741211 36.099998474121094" height="53.87682984838498" data-palette-color="#ffffff"><path d="M6.8-35.5L6.8-35.5 23.5-34.95 28.2-35.05Q28.35-34 28.35-32.85 28.35-31.7 27.95-31.2 27.55-30.7 26.5-30.7L26.5-30.7Q26.4-30.7 19.45-31.35L19.45-31.35Q19.25-29.1 17.95-23.65 16.65-18.2 15.45-12 14.25-5.8 14.2-0.85L14.2-0.85Q12.25 0.15 6.2 0.15L6.2 0.15 5.85 0.15Q5.85-2.45 8.7-15.35 11.55-28.25 11.55-31.05L11.55-31.05Q11.55-31.25 11.45-31.75L11.45-31.75 9.45-31.75Q5.35-31.75 3.15-30.5L3.15-30.5Q2-32 1.75-34.9L1.75-34.9Q3.45-35.5 6.8-35.5ZM29.95 0.6L29.95 0.6Q26.5 0.6 24.55-1.83 22.6-4.25 22.6-8.6L22.6-8.6Q22.6-14.15 25.57-18.15 28.55-22.15 33.8-22.15L33.8-22.15 35.6-22.05Q36.45-22.5 37.5-22.5L37.5-22.5Q41.45-22.5 41.45-15.05L41.45-15.05Q43.5-15.15 45.6-15.6L45.6-15.6 46.4-15.8 46.7-13.85Q45.05-13.15 42.25-12.6L42.25-12.6 41.25-12.4Q40.3-7.15 37.4-3.28 34.5 0.6 29.95 0.6ZM32.65-3.7L32.65-3.7Q34.75-3.7 36.42-6.4 38.1-9.1 38.75-12.1L38.75-12.1Q33.4-12.1 33.4-16.1L33.4-16.1Q33.4-17.7 34.05-19.1L34.05-19.1 34.3-19.6Q34.1-19.7 33.8-19.7 33.5-19.7 33.35-19.6L33.35-19.6Q32.1-18.8 31-15.85 29.9-12.9 29.9-9.1L29.9-9.1Q29.9-3.7 32.65-3.7ZM43.85 0.15L43.85 0.15 42.9 0.15Q42.9-2.2 44.32-8.85 45.75-15.5 45.75-16.4L45.75-16.4Q45.75-18.05 44.35-19.9L44.35-19.9 43.9-20.5 43.95-21.15Q46.65-21.9 52.6-21.9L52.6-21.9Q53.3-20.95 53.3-18.8L53.3-18.8Q57.8-22.15 60.45-22.15L60.45-22.15Q63.8-22.15 64.4-18.7L64.4-18.7Q65.75-19.8 67.92-20.98 70.1-22.15 71.82-22.15 73.55-22.15 74.7-21.03 75.85-19.9 75.85-17.9 75.85-15.9 74.75-11.3 73.65-6.7 73.65-5.13 73.65-3.55 74.1-3.55L74.1-3.55Q74.4-3.55 76.15-4.5L76.15-4.5 76.7-4.8 77.6-3.05Q76.3-1.75 74.07-0.58 71.85 0.6 70.15 0.6L70.15 0.6Q66.4 0.6 66.4-3.65L66.4-3.65Q66.4-5.2 67.47-9.88 68.55-14.55 68.55-15.98 68.55-17.4 67.7-17.4L67.7-17.4Q66.25-17.4 64.4-16.3L64.4-16.3Q64.3-15.3 63.02-9.5 61.75-3.7 61.75-0.5L61.75-0.5Q60.3 0.15 54.95 0.15L54.95 0.15Q54.85-0.4 54.85-2.5 54.85-4.6 56.02-9.65 57.2-14.7 57.2-16.05 57.2-17.4 56.25-17.4L56.25-17.4Q54.75-17.4 52.95-16.2L52.95-16.2Q52.85-15.75 51.95-11.8L51.95-11.8Q50.15-3.9 50.15-0.55L50.15-0.55Q48.4 0.15 43.85 0.15Z" opacity="1" transform="matrix(1,0,0,1,0,0)" fill="#ffffff" class="undefined-text-0" data-fill-palette-color="quaternary" id="text-0"></path></svg></g></svg></g><g transform="matrix(1,0,0,1,0,60.44340984838498)"><svg viewBox="0 0 113.20104000000003 6.372509209843543" height="6.372509209843543" width="113.20104000000003"><g transform="matrix(1,0,0,1,0,0)"><svg width="113.20104000000003" viewBox="0 -35.79999923706055 635.9000244140625 35.79999923706055" height="6.372509209843543" data-palette-color="#ffffff"><path d="M10.75-2.15L30.2-2.15 30.2 0 0 0 0-2.15 4.85-2.15 4.85-34.95 28.15-34.95 28.1-29.45 10.75-29.45 10.75-19.85 26.25-19.85 26.25-14.4 10.75-14.4 10.75-2.15ZM63-2.15L67.85-2.15 67.85 0 57.05 0 48.7-11.75 40.95-11.75 40.95 0 30.2 0 30.2-2.15 35.05-2.15 35.05-34.95 48.05-34.95Q56.05-34.95 59.5-32.25 62.95-29.55 62.95-23.6L62.95-23.6Q62.95-14.95 55.4-12.7L55.4-12.7 63-2.15ZM48.3-17.1Q53.3-17.1 55.1-18.65 56.9-20.2 56.9-23.63 56.9-27.05 55.05-28.33 53.2-29.6 48.45-29.6L48.45-29.6 40.95-29.6 40.95-17.1 48.3-17.1ZM97.14-2.15L108.59-2.15 108.59 0 66.59 0 66.59-2.15 78.05-2.15Q73.94-4.5 71.57-8.6 69.19-12.7 69.19-17.75L69.19-17.75Q69.19-25.45 74.5-30.63 79.8-35.8 87.59-35.8 95.39-35.8 100.69-30.63 106-25.45 106-17.75L106-17.75Q106-12.75 103.62-8.6 101.25-4.45 97.14-2.15L97.14-2.15ZM96.37-26.7Q92.8-30.4 87.59-30.4 82.39-30.4 78.82-26.7 75.25-23 75.25-17.73 75.25-12.45 78.82-8.75 82.39-5.05 87.59-5.05 92.8-5.05 96.37-8.75 99.94-12.45 99.94-17.73 99.94-23 96.37-26.7ZM108.59-2.15L113.44-2.15 113.44-34.95 119.34-34.95 139.64-8.85 139.64-34.95 145.54-34.95 145.54-2.15 150.39-2.15 150.39 0 139.14 0 119.34-25.5 119.34 0 108.59 0 108.59-2.15ZM168.44-2.15L180.59-2.15 180.59 0 150.39 0 150.39-2.15 162.54-2.15 162.54-29.55 151.94-29.55 151.94-34.95 179.04-34.95 179.04-29.55 168.44-29.55 168.44-2.15ZM180.59-2.15L194.29-2.15 194.29 0 180.59 0 180.59-2.15ZM194.29-2.15L199.14-2.15 199.14-34.95 223.69-34.95 223.69-29.4 205.04-29.4 205.04-20.15 221.79-20.15 221.79-14.9 205.04-14.9 205.04-5.55 224.29-5.55 224.29-2.15 229.14-2.15 229.14 0 194.29 0 194.29-2.15ZM226.98-2.15L231.83-2.15 231.83-34.95 237.73-34.95 258.03-8.85 258.03-34.95 263.93-34.95 263.93-2.15 268.78-2.15 268.78 0 257.53 0 237.73-25.5 237.73 0 226.98 0 226.98-2.15ZM296.33-2.15L307.88-2.15 307.88 0 268.78 0 268.78-2.15 273.63-2.15 273.63-34.95 285.63-34.95Q295.03-34.95 300.08-30.38 305.13-25.8 305.13-17.5L305.13-17.5Q305.13-6.35 296.33-2.15L296.33-2.15ZM299.18-17.5L299.18-17.5Q299.18-29.5 285.43-29.5L285.43-29.5 279.53-29.5 279.53-5.55 286.08-5.55Q292.43-5.55 295.81-8.58 299.18-11.6 299.18-17.5ZM307.88-2.15L321.58-2.15 321.58 0 307.88 0 307.88-2.15ZM349.13-2.15L360.68-2.15 360.68 0 321.58 0 321.58-2.15 326.43-2.15 326.43-34.95 338.43-34.95Q347.83-34.95 352.88-30.38 357.93-25.8 357.93-17.5L357.93-17.5Q357.93-6.35 349.13-2.15L349.13-2.15ZM351.98-17.5L351.98-17.5Q351.98-29.5 338.23-29.5L338.23-29.5 332.33-29.5 332.33-5.55 338.88-5.55Q345.23-5.55 348.6-8.58 351.98-11.6 351.98-17.5ZM360.67-2.15L365.52-2.15 365.52-34.95 390.07-34.95 390.07-29.4 371.42-29.4 371.42-20.15 388.17-20.15 388.17-14.9 371.42-14.9 371.42-5.55 390.67-5.55 390.67-2.15 395.52-2.15 395.52 0 360.67 0 360.67-2.15ZM415.02-2.15L428.37-2.15 428.37 0 393.37 0 393.37-2.15 406.67-2.15 393.52-34.95 400.12-34.95 410.87-8.85 421.62-34.95 428.22-34.95 415.02-2.15ZM428.37-2.15L433.22-2.15 433.22-34.95 457.77-34.95 457.77-29.4 439.12-29.4 439.12-20.15 455.87-20.15 455.87-14.9 439.12-14.9 439.12-5.55 458.37-5.55 458.37-2.15 463.22-2.15 463.22 0 428.37 0 428.37-2.15ZM487.77-2.15L492.62-2.15 492.62 0 461.07 0 461.07-2.15 465.92-2.15 465.92-34.95 471.82-34.95 471.82-5.6 487.77-5.6 487.77-2.15ZM519.91-2.15L531.36-2.15 531.36 0 489.36 0 489.36-2.15 500.81-2.15Q496.71-4.5 494.34-8.6 491.96-12.7 491.96-17.75L491.96-17.75Q491.96-25.45 497.26-30.63 502.56-35.8 510.36-35.8 518.16-35.8 523.46-30.63 528.76-25.45 528.76-17.75L528.76-17.75Q528.76-12.75 526.39-8.6 524.01-4.45 519.91-2.15L519.91-2.15ZM519.14-26.7Q515.56-30.4 510.36-30.4 505.16-30.4 501.59-26.7 498.01-23 498.01-17.73 498.01-12.45 501.59-8.75 505.16-5.05 510.36-5.05 515.56-5.05 519.14-8.75 522.71-12.45 522.71-17.73 522.71-23 519.14-26.7ZM542.11-2.15L565.56-2.15 565.56 0 531.36 0 531.36-2.15 536.21-2.15 536.21-34.95 548.21-34.95Q556.16-34.95 559.81-31.9 563.46-28.85 563.46-22.5 563.46-16.15 559.74-13.2 556.01-10.25 548.31-10.25L548.31-10.25 542.11-10.25 542.11-2.15ZM548.96-15.6Q553.86-15.6 555.63-17.48 557.41-19.35 557.41-22.98 557.41-26.6 555.16-28.1 552.91-29.6 548.11-29.6L548.11-29.6 542.11-29.6 542.11-15.6 548.96-15.6ZM565.56-2.15L570.41-2.15 570.41-34.95 594.96-34.95 594.96-29.4 576.31-29.4 576.31-20.15 593.06-20.15 593.06-14.9 576.31-14.9 576.31-5.55 595.56-5.55 595.56-2.15 600.41-2.15 600.41 0 565.56 0 565.56-2.15ZM631.05-2.15L635.9-2.15 635.9 0 625.11 0 616.75-11.75 609-11.75 609 0 598.25 0 598.25-2.15 603.11-2.15 603.11-34.95 616.11-34.95Q624.11-34.95 627.55-32.25 631-29.55 631-23.6L631-23.6Q631-14.95 623.46-12.7L623.46-12.7 631.05-2.15ZM616.36-17.1Q621.36-17.1 623.15-18.65 624.96-20.2 624.96-23.63 624.96-27.05 623.11-28.33 621.25-29.6 616.5-29.6L616.5-29.6 609-29.6 609-17.1 616.36-17.1Z" opacity="1" transform="matrix(1,0,0,1,0,0)" fill="#ffffff" class="undefined-text-1" data-fill-palette-color="quaternary" id="text-1"></path></svg></g></svg></g></svg></g></svg></g><g></g></svg></g></svg></g></svg></g><defs></defs></svg><rect width="320" height="360" fill="none" stroke="none" visibility="hidden"></rect></g></svg></g></svg>